Coordinates
version=1
nRows=14
nColumns=24
inDegrees=yes

Units are S.I. units (second, meters, Newtons, ...)
Angles are in degrees.

endheader
time	pelvis_tilt	pelvis_list	pelvis_rotation	pelvis_tx	pelvis_ty	pelvis_tz	hip_flexion_r	hip_adduction_r	hip_rotation_r	knee_angle_r	ankle_angle_r	subtalar_angle_r	mtp_angle_r	hip_flexion_l	hip_adduction_l	hip_rotation_l	knee_angle_l	ankle_angle_l	subtalar_angle_l	mtp_angle_l	lumbar_extension	lumbar_bending	lumbar_rotation
      4.51000000	    -18.11054873	     11.48722660	     -7.33129740	     -0.77989229	     -0.03917758	     -0.24886970	     22.64791310	     -9.37552181	      4.96872942	    -63.81430746	    -41.36895117	    -15.68544857	     11.01119556	     40.84142447	     13.24711905	      3.00560317	    -27.88264367	     17.07122551	      0.55221174	    -79.98886924	     14.51247219	     -9.71311849	      8.63361061
      4.51500000	    -18.06893294	     11.61522439	     -7.39466057	     -0.77278177	     -0.03773720	     -0.24899244	     23.84614658	     -9.06063386	      5.46160279	    -65.13969671	    -39.37906702	    -17.33364024	      8.25714650	     39.94882568	     13.43179630	      3.03327541	    -27.28761315	     17.50973390	      0.67315243	    -80.32088427	     14.49551334	     -9.75761299	      8.48467551
      4.52000000	    -18.01505786	     11.70133514	     -7.43859392	     -0.76556792	     -0.03618662	     -0.24908621	     24.96909742	     -8.70217878	      5.89637469	    -66.31848291	    -37.27246414	    -18.75469170	      5.08788678	     38.99535727	     13.59924737	      3.10866339	    -26.63009499	     17.85514181	      0.73321203	    -80.52396908	     14.48298074	     -9.76887226	      8.31592340
      4.52500000	    -17.94934187	     11.74942881	     -7.48253336	     -0.75841438	     -0.03459120	     -0.24916803	     26.05841624	     -8.30183055	      6.30384565	    -67.38091988	    -35.19742503	    -19.96685542	      1.78904127	     38.01175989	     13.73983366	      3.24801263	    -25.94946124	     18.14836197	      0.77426016	    -80.59607916	     14.44010330	     -9.74968268	      8.15442058
      4.53000000	    -17.85448602	     11.76658024	     -7.52787051	     -0.75124212	     -0.03292224	     -0.24922479	     27.07975495	     -7.87267968	      6.69285224	    -68.31158754	    -33.18192363	    -20.95383858	     -1.48208388	     36.95924208	     13.86569545	      3.48397763	    -25.21827521	     18.38586429	      0.77412480	    -80.57231089	     14.36915219	     -9.71005088	      7.98284173
      4.53500000	    -17.80867551	     11.79586236	     -7.61335347	     -0.74409572	     -0.03127003	     -0.24931957	     28.11420776	     -7.44222890	      7.19227972	    -68.99996107	    -31.96198085	    -22.11561186	     -1.99691065	     35.94886694	     13.97380164	      3.64469618	    -24.43145642	     18.50875431	      0.65845316	    -80.54325874	     14.36279678	     -9.65061336	      7.89379599
      4.54000000	    -17.68817000	     11.61892407	     -7.51814791	     -0.73693295	     -0.02953499	     -0.24938033	     28.99190320	     -6.90573306	      7.22752727	    -69.77214819	    -29.41075712	    -22.39769101	     -7.58784815	     34.82990621	     13.98167234	      4.03747243	    -23.73502014	     18.74776591	      0.78610758	    -80.32928386	     14.20623431	     -9.48446412	      7.56134170
      4.54500000	    -17.64230251	     11.57605369	     -7.59551510	     -0.72980505	     -0.02786253	     -0.24943292	     29.96086212	     -6.42986621	      7.64617940	    -70.23852378	    -28.39421341	    -23.18050942	     -7.75844284	     33.77031396	     14.01733569	      4.27566420	    -22.88286304	     18.82831055	      0.67066536	    -80.30893967	     14.19123448	     -9.36461895	      7.49670716
      4.55000000	    -17.52656347	     11.39978726	     -7.51603713	     -0.72265264	     -0.02610657	     -0.24946978	     30.79456627	     -5.93562908	      7.65225865	    -70.73484072	    -26.37990016	    -23.38909732	    -11.97300590	     32.59955308	     14.00732269	      4.70872275	    -22.05752788	     18.89753106	      0.66975454	    -80.00541904	     14.04987898	     -9.19876395	      7.21193077
      4.55500000	    -17.46999954	     11.21113911	     -7.49171165	     -0.71557298	     -0.02444785	     -0.24958823	     31.63771074	     -5.40760436	      7.87511865	    -70.99245677	    -25.31031099	    -23.63649268	    -11.85430633	     31.50071728	     13.94710134	      5.07747249	    -21.21982221	     18.98970018	      0.59007311	    -79.98883340	     13.97707244	     -8.97943690	      7.01221000
      4.56000000	    -17.38952281	     10.99758888	     -7.40616128	     -0.70850564	     -0.02275964	     -0.24974616	     32.41126555	     -4.92328037	      7.98054927	    -71.14601649	    -24.25154191	    -23.78040895	    -11.74787564	     30.34294447	     13.89323924	      5.56909854	    -20.33030259	     18.99654871	      0.47704772	    -79.96620771	     13.85812979	     -8.76488366	      6.74789229
      4.56500000	    -17.34090250	     10.71132459	     -7.31584823	     -0.70148192	     -0.02114499	     -0.24987029	     33.17902050	     -4.38858114	      8.00413783	    -71.19383909	    -23.19574832	    -23.81749313	    -11.50619786	     29.22697284	     13.75090706	      6.04753427	    -19.47526176	     19.03285574	      0.36471735	    -79.92297142	     13.76548925	     -8.47920926	      6.48649047
      4.57000000	    -17.28048896	     10.41171062	     -7.17515983	     -0.69452041	     -0.01953298	     -0.24999136	     33.89603220	     -3.88956613	      7.96902084	    -71.14211345	    -22.09509799	    -23.68728587	    -11.01929789	     28.07963373	     13.60733043	      6.63877337	    -18.58134145	     18.97685926	      0.22673059	    -79.86787753	     13.63984029	     -8.21110641	      6.17883976
      4.57500000	    -17.20443683	     10.11939823	     -7.09422236	     -0.68754154	     -0.01794083	     -0.25016428	     34.56954393	     -3.41001239	      7.97981265	    -70.94646405	    -21.19972788	    -23.58061874	     -9.50027998	     26.86280356	     13.47125542	      7.40405673	    -17.57122180	     18.74589541	     -0.26674422	    -79.64277692	     13.51191843	     -7.92086183	      5.99566560
